<svg xmlns="http://www.w3.org/2000/svg" viewBox="0 0 24 24"><g data-name="Product Icons"><g data-name="colored-32/functions"><path d="M2 15.56 5 18V6L2 8.43z" style="fill:#669df6"/><path d="m2 10 3-2V6zm3 8v-2l-3-2z" style="fill:#4285f4"/><path d="m8 20-6-6v4l4 4z" style="fill:#aecbfa"/></g><path d="M5.99 2.01 2 6l.01 4 5.98-5.99z" style="fill:#aecbfa"/><g data-name="colored-32/functions"><g data-name="Shape"><path d="m22 8.45-3-2.44v12l3-2.42z" style="fill:#669df6"/><path d="m22 14.01-3 2v2zm-3-8v2l3 2z" style="fill:#4285f4"/><path d="m16 4.01 6 6v-4l-4-4z" style="fill:#aecbfa"/></g></g><path d="M18.01 22 22 18.01l-.01-4L16.01 20z" style="fill:#aecbfa"/><circle cx="8" cy="12" r="1" style="fill:#aecbfa"/><circle cx="12" cy="12" r="1" data-name="Oval" style="fill:#aecbfa"/><circle cx="15.99" cy="12" r="1" data-name="Oval" style="fill:#aecbfa"/></g></svg>