<svg xmlns="http://www.w3.org/2000/svg" viewBox="0 0 24 24"><g data-name="Product Icons"><g data-name="colored-32/quotas"><path d="M6 2H4v18.58A1.31 1.31 0 0 0 5.29 22h13.44A1.29 1.29 0 0 0 20 20.58V2l-2 .14V20H6Z" style="fill:#669df6"/><path d="M12 22h6.73A1.29 1.29 0 0 0 20 20.58V2h-2v18h-6z" data-name="Path" style="fill:#4285f4"/><path d="M7 12h10v7H7z" style="fill:#669df6"/><path d="M12 12h5v7h-5z" data-name="Rectangle-328" style="fill:#4285f4"/></g><path d="M7 3h1v3H7z" style="fill:#669df6"/><path d="M7.5 3H8v3h-.5z" style="fill:#4285f4"/><path d="M10 3h1v3h-1zm3 0h1v3h-1zm3 0h1v3h-1z" style="fill:#669df6"/><path d="M10.5 3h.5v3h-.5zm3 0h.5v3h-.5zm3 0h.5v3h-.5z" style="fill:#4285f4"/></g></svg>